**ABCDEFGHIJKLMNOPQRSTUVWXYZabcdefghijklmnopqrstuvwxyz**************************
**PARASOLID !"#$%&'()*+,-./:;<=>?@[\]^_`{|}~0123456789**************************
**PART1;
MC=AMD64;
MC_MODEL=Intel64 Family 6 Model 37 Stepping 2, GenuineIntel;
MC_ID=unknown;
OS=Windows_NT;
OS_RELEASE=unknown;
FRU=Parasolid Version 25.1, build 213, 10- 4-2013;
APPL=SolidWorks 2014-2013317;
SITE=;
USER=unknown;
FORMAT=text;
GUISE=transmit;
KEY=StartingBlock;
FILE=StartingBlock.x_t;
DATE=Mon Mar 10 12:32:01 2014;
**PART2;
SCH=SCH_2501213_25001;
USFLD_SIZE=0;
**PART3;
**END_OF_HEADER*****************************************************************
T51 : TRANSMIT FILE created by modeller version 250121323 SCH_2501213_25001_1300
6189 0 12 29 CCCCCCCCCCCCCDI5 owner1040 0 CCCCCCCCCA16 index_map_offset0 0 1 dA9
 index_map82 0 A17 node_id_index_map82 0 A20 schema_embedding_map82 0 A5 child12
 0 A14 lowest_node_id0 0 1 dZ1 1821 0 2 0 0 0 0 1e3 1e-8 0 3 0 1 0 1 1 4 5 6 7 8
 9 10 0 0 0 0 0 0 70 11 CI9 list_type0 0 1 uI10 notransmit0 0 1 lCCCDCCDI12 fing
er_index0 0 1 dI12 finger_block1012 0 CZ2 0 4 T1 0 0 2 20 1 11 11 13 255 4 94 0
 1 0 12 0 0 13 0 50 255 5 93 0 12 14 0 0 +0 .0254 0 1 0 0 0 0 -1 30 255 6 398 0
 9 15 0 0 +.009144 .018542 -.07874 -.816051525751158 0 -.577979158204867 29 255
 7 392 0 10 16 0 .084455 .018542 -.0254 19 8 CCCCCCCA5 owner12 0 Z8 28 0 1 13 0
 17 V0 16 255 9 396 0 ?18 0 19 6 0 0 1 18 255 10 390 0 20 0 21 7 ?1 17 255 20 0
 22 18 23 10 24 25 0 26 +18 21 223 0 27 10 28 16 ?1 17 27 0 29 30 26 21 31 32 0
 33 -18 28 61 0 34 21 35 36 ?1 29 16 225 0 21 36 7 .084455 0 -.0254 29 36 70 0 2
8 37 16 0 0 -.07874 29 37 72 0 35 38 36 .084455 0 0 18 35 63 0 39 28 40 37 ?1 29
 38 73 0 40 41 37 0 0 0 18 40 64 0 42 35 43 38 ?1 29 41 211 0 43 44 38 .01770298
18570827 .0127 -.0635 18 43 189 0 45 40 46 41 ?1 29 44 375 0 46 47 41 .009144 0
 -.07874 18 46 302 0 30 43 48 44 ?1 29 47 559 0 48 49 44 0 .018542 0 18 48 485 0
 50 46 51 47 ?1 29 49 560 0 51 52 47 .084455 .018542 0 18 51 486 0 23 48 53 49 ?
1 29 52 561 0 53 54 49 0 .018542 -.07874 18 53 472 0 55 51 56 52 ?1 29 54 562 0
 56 0 52 .009144 .018542 -.07874 18 56 473 0 18 53 0 54 ?1 17 18 0 22 55 20 56 2
6 9 0 57 +15 255 22 492 0 50 58 59 17 55 0 22 50 18 53 57 60 0 61 +17 26 0 29 27
 62 10 18 9 0 31 -17 57 0 63 64 65 56 55 60 0 62 -15 63 410 0 57 66 0 17 64 0 63
 67 57 46 62 68 0 69 -17 65 0 63 57 67 53 34 70 0 0 -16 60 455 0 ?55 25 0 71 0 0
 1 17 62 0 29 26 30 56 64 68 0 0 +15 29 397 0 26 72 0 17 30 0 29 62 27 46 33 73
 0 64 -16 68 261 0 ?62 32 73 74 0 0 1 16 32 277 0 ?31 75 68 76 0 0 1 16 73 274 0
 ?33 68 77 78 0 0 1 30 74 349 0 68 76 79 0 +.009144 0 -.07874 0 1 0 30 76 350 0
 32 78 74 0 +.084455 0 -.0254 0 1 0 31 255 79 210 0 75 74 80 0 +-118790739517293
e-32 .0127 -.0635 -1 0 0 0 0 1 .003 16 75 187 0 ?81 82 32 79 0 0 1 31 80 209 0 8
2 79 83 0 +.0159004 .0127 -.0635 -1 0 0 0 0 1 .003 16 82 188 0 ?84 85 75 80 0 0
 1 31 83 169 0 85 80 86 0 +.073025 0 -.0127 0 1 0 0 0 1 .004 16 85 150 0 ?87 88
 82 83 0 0 1 30 86 69 0 88 83 89 0 +0 0 0 0 0 1 16 88 57 0 ?90 91 85 86 0 0 1 30
 89 68 0 91 86 92 0 +0 0 0 1 0 0 16 91 53 0 ?93 94 88 89 0 0 1 30 92 67 0 94 89
 95 0 +.084455 0 0 0 0 -1 16 94 49 0 ?96 97 91 92 0 0 1 30 95 66 0 97 92 98 0 +0
 0 -.07874 -1 0 0 16 97 221 0 ?67 70 94 95 0 0 1 30 98 86 0 70 95 99 0 +0 .0254
 -.07874 0 -1 0 16 70 407 0 ?34 100 97 98 0 0 1 30 99 88 0 100 98 15 0 +.084455
 .0254 0 0 -1 0 16 100 414 0 ?39 19 70 99 0 0 1 30 15 89 0 19 99 6 0 +0 .0254 0
 0 -1 0 16 19 421 0 ?42 9 100 15 0 0 1 17 42 0 101 93 102 40 103 19 0 104 +15 10
1 424 0 102 105 0 17 93 0 101 106 42 35 104 91 0 107 +17 102 0 101 42 106 48 23
 108 0 103 -17 103 0 109 61 90 48 42 19 0 0 -17 104 0 110 111 107 40 93 91 0 90
 -15 110 227 0 33 112 113 17 111 0 110 69 104 28 90 88 0 0 -17 107 0 110 104 33
 35 96 94 0 0 -17 90 0 109 103 34 40 111 88 0 0 +15 109 428 0 61 12 0 17 34 0 10
9 90 61 28 65 70 0 67 +17 61 0 109 34 103 53 50 114 0 65 -17 67 0 63 65 64 28 69
 97 0 111 +17 69 0 110 33 111 46 67 97 0 0 -17 33 0 110 107 69 21 30 73 0 96 +17
 96 0 115 31 39 21 107 94 0 0 +15 115 417 0 24 116 0 17 31 0 115 24 96 10 27 32
 0 0 +17 39 0 115 96 24 35 106 100 0 93 +17 24 0 115 39 31 51 20 25 0 106 -17 10
6 0 101 102 93 51 39 100 0 0 -16 25 458 0 ?20 108 60 117 0 0 1 16 108 457 0 ?23
 114 25 118 0 0 1 30 117 539 0 25 71 118 0 +.084455 .018542 0 0 0 -1 30 71 540 0
 60 0 117 0 +0 .018542 -.07874 -1 0 0 30 118 538 0 108 117 119 0 +0 .018542 0 1
 0 0 30 119 537 0 114 118 120 0 +0 .018542 0 0 0 1 16 114 456 0 ?50 77 108 119 0
 0 1 31 120 536 0 77 119 78 0 -.073025 .018542 -.0127 0 1 0 0 0 1 .004 16 77 432
 0 ?121 73 114 120 0 0 1 30 78 362 0 73 120 76 0 +.009144 0 -.07874 .81605152575
1158 0 .577979158204867 17 121 0 59 121 121 0 122 77 0 0 +15 59 493 0 121 58 0 1
7 122 0 123 122 122 0 121 77 0 0 -15 123 403 0 122 124 0 14 255 124 404 125 ?72
 66 126 4 127 -0 0 72 66 17 81 255 1 125 1812 128 124 129 0 0 130 131 14 72 399
 130 ?112 124 29 4 132 -0 0 112 124 17 14 66 411 133 ?124 116 63 4 134 -0 0 124
 116 17 15 126 162 0 135 124 123 51 255 127 168 0 124 136 137 0 +.073025 .0254 -
.0127 0 1 0 .004 0 0 1 13 17 29 0 0 0 0 0 0 8 12 14 12 429 138 ?105 0 139 4 5 -0
 0 105 0 17 81 1 138 1815 128 12 140 0 133 141 142 14 105 425 141 ?116 12 101 4
 14 -0 0 116 12 17 15 139 180 0 143 12 109 17 143 0 139 143 143 0 81 75 0 0 -17
 81 0 144 81 81 0 143 75 0 0 +15 144 203 0 81 145 0 14 145 199 146 ?58 147 148 4
 149 -0 0 58 147 17 81 1 146 1817 128 145 150 0 141 151 152 14 58 490 151 ?0 145
 22 4 153 +0 0 0 145 17 14 147 194 154 ?145 112 155 4 136 -0 0 145 112 17 15 148
 202 0 156 145 144 51 149 208 0 145 132 136 0 +0 .0127 -.0635 -1 0 0 .003 0 0 1
 50 132 339 0 72 153 149 0 +.009144 0 -.07874 -.577979158204867 0 .8160515257511
58 .816051525751158 0 .577979158204867 52 255 136 207 0 147 149 127 0 +.0159004
 .0127 -.0635 -1 0 0 .003 .857167300702111 .515038074910056 0 0 1 50 153 535 0 5
8 0 132 0 +0 .018542 0 0 1 0 0 0 1 17 156 0 148 156 156 0 84 82 0 0 -17 84 0 157
 84 84 0 156 82 0 0 +15 157 198 0 84 147 0 81 1 154 1819 128 147 158 0 151 159 1
60 14 112 43 159 ?147 72 110 4 137 +0 0 147 72 17 15 155 197 0 45 147 157 17 45
 0 155 45 45 43 0 0 0 0 ?81 1 159 1820 128 112 161 0 154 162 163 50 137 65 0 112
 127 134 0 +0 0 0 0 -1 0 0 0 -1 50 134 90 0 66 137 164 0 +0 .0254 -.07874 0 0 1
 1 0 0 50 164 91 0 116 134 14 0 +.084455 .0254 0 -1 0 0 0 0 1 14 116 418 162 ?66
 105 115 4 164 -0 0 66 105 17 50 14 92 0 105 164 5 0 +0 .0254 0 0 0 -1 -1 0 0 81
 1 162 1821 128 116 165 0 159 0 166 80 255 1 128 167 168 9000 1 1 1 1 1 1 1 1 0
 FFFFTFTFFFFFFF1 81 1 165 1782 169 116 0 162 170 171 172 82 255 1 166 1040973968
 80 1 169 0 173 8001 0 0 0 0 3 5 0 0 0 FFFFTFTFFFFFFF2 81 1 170 1781 169 105 0 1
41 140 165 174 81 1 171 1783 169 66 0 133 165 129 175 83 255 3 172 .792156862745
098 .819607843137255 .933333333333333 81 1 133 1814 128 66 171 0 130 138 176 81
 1 129 1784 169 124 0 125 171 177 178 83 3 175 .792156862745098 .819607843137255
 .933333333333333 81 1 177 1785 169 72 0 130 129 161 179 83 3 178 .7921568627450
98 .819607843137255 .933333333333333 81 1 130 1813 128 72 177 0 125 133 180 81 1
 161 1786 169 112 0 159 177 158 181 83 3 179 .792156862745098 .819607843137255 .
933333333333333 81 1 158 1787 169 147 0 154 161 150 182 83 3 181 .79215686274509
8 .819607843137255 .933333333333333 81 1 150 1788 169 145 0 146 158 183 184 83 3
 182 .792156862745098 .819607843137255 .933333333333333 81 1 183 1789 169 58 0 1
51 150 0 185 83 3 184 .792156862745098 .819607843137255 .933333333333333 81 1 15
1 1818 128 58 183 0 146 154 186 83 3 185 .792156862745098 .819607843137255 .9333
33333333333 82 1 186 1039073424 82 1 180 1033633936 82 1 176 1040253072 81 1 141
 1816 128 105 170 0 138 146 187 81 1 140 1780 169 12 0 138 0 170 188 83 3 174 .7
92156862745098 .819607843137255 .933333333333333 83 3 188 .792156862745098 .8196
07843137255 .933333333333333 82 1 187 1041694864 79 255 15 173 SDL/TYSA_COLOUR79
 14 168 SWEntUnchanged82 1 163 -931921780 82 1 160 113115272 82 1 152 112525448
 82 1 142 1042088080 17 135 0 126 135 135 0 87 85 0 0 -17 87 0 113 87 87 0 135 8
5 0 0 +15 113 136 0 87 112 0 82 1 131 1039532176 17 50 0 22 23 55 48 61 114 0 10
2 +17 23 0 22 20 50 51 102 108 0 24 +19 13 95 0 1 0 8 4 S0 74 4 CI16 index_map_o
ffset0 0 1 dCCZ20 11 2 0 0 162 183 0 0 0 0 0 0 0 0 0 0 0 0 0 0 0 0 0 0 1 0 
